<svg
    width="1em"
    height="1em"
    preserveAspectRatio="none"
    xmlns="http://www.w3.org/2000/svg"
viewBox="0 0 1000 100"
>
<path d="M0 0h1000v4H0zM10 100 0 4h20l-10 96zM30 100 20 4h20l-10 96zM50 100 40 4h20l-10 96zM70 100 60 4h20l-10 96zM90 100 80 4h20l-10 96zM110 100 100 4h20l-10 96zM130 100 120 4h20l-10 96zM150 100 140 4h20l-10 96zM170 100 160 4h20l-10 96zM190 100 180 4h20l-10 96zM210 100 200 4h20l-10 96zM230 100 220 4h20l-10 96zM250 100 240 4h20l-10 96zM270 100 260 4h20l-10 96zM290 100 280 4h20l-10 96zM310 100 300 4h20l-10 96zM330 100 320 4h20l-10 96zM350 100 340 4h20l-10 96zM370 100 360 4h20l-10 96zM390 100 380 4h20l-10 96zM410 100 400 4h20l-10 96zM430 100 420 4h20l-10 96zM450 100 440 4h20l-10 96zM470 100 460 4h20l-10 96zM490 100 480 4h20l-10 96zM510 100 500 4h20l-10 96zM530 100 520 4h20l-10 96zM550 100 540 4h20l-10 96zM570 100 560 4h20l-10 96zM590 100 580 4h20l-10 96zM610 100 600 4h20l-10 96zM630 100 620 4h20l-10 96zM650 100 640 4h20l-10 96zM670 100 660 4h20l-10 96zM690 100 680 4h20l-10 96zM710 100 700 4h20l-10 96zM730 100 720 4h20l-10 96zM750 100 740 4h20l-10 96zM770 100 760 4h20l-10 96zM790 100 780 4h20l-10 96zM810 100 800 4h20l-10 96zM830 100 820 4h20l-10 96zM850 100 840 4h20l-10 96zM870 100 860 4h20l-10 96zM890 100 880 4h20l-10 96zM910 100 900 4h20l-10 96zM930 100 920 4h20l-10 96zM950 100 940 4h20l-10 96zM970 100 960 4h20l-10 96zM990 100 980 4h20l-10 96z" fill="#000"></path>
</svg>