<svg xmlns="http://www.w3.org/2000/svg" version="1.1" xmlns:xlink="http://www.w3.org/1999/xlink" xmlns:svgjs="http://svgjs.dev/svgjs" viewBox="0 0 800 800" opacity="1"><defs><linearGradient x1="50%" y1="0%" x2="50%" y2="100%" id="uundulate-grad"><stop stop-color="#f28b71" stop-opacity="1" offset="45%"></stop><stop stop-color="#d100ff" stop-opacity="1" offset="100%"></stop></linearGradient></defs><g stroke-width="2" stroke="url(#uundulate-grad)" fill="none"><path d="M775.655337726045 117.06717221776023C833.1217345252535 227.4983677716957 804.0241781613736 593.298423346452 729.8224055115168 693.2560776215231C655.62063286166 793.2137318965943 516.2613193322197 632.1584237912105 419.4868290067327 596.8639127381014C322.71233868124546 561.5694016849923 353.926007697146 576.3523783099639 265.30485194917856 523.8424245665988C176.6836962012112 471.3324708232335 -11.080511311697592 410.0093504629609 -5.894718583510553 344.8161347699481C-0.7089258553235709 279.6229190769352 194.38865299055522 248.75453003332836 290.1966570444771 210.91498924013763C386.0046610983991 173.0754484469469 352.8464757333213 182.73796750896145 453.9837008753145 163.1863389626327C555.1209260173076 143.63471041630396 718.1889409268365 6.635976663824692 775.655337726045 117.06717221776023C833.1217345252535 227.4983677716957 804.0241781613736 593.298423346452 729.8224055115168 693.2560776215231 "></path><path d="M762.701619099581 126.82346294375071C818.1864160091618 233.44668623720565 790.0922236578294 586.6329467921428 718.4491328234849 683.1437854025562C646.8060419891406 779.6546240129696 512.2522220296809 624.1529472215648 418.8147830947278 590.0754882737353C325.3773441597748 555.9980293259058 355.5146797613338 570.2712481362232 269.9494259357102 519.5719824529741C184.38417211008652 468.872716769725 3.0945924424503914 409.6641867667031 8.101564731734413 346.719012994139C13.108537021018435 283.7738392215749 201.4786131480737 253.96987738636813 293.9828929242742 217.4351483446668C386.48717270047473 180.90041930296542 354.4723730376411 190.22974805249675 452.1221076574966 171.35231359397244C549.7718422773521 152.47487913544808 707.2168221900004 20.200239650295714 762.701619099581 126.82346294375071C818.1864160091618 233.44668623720565 790.0922236578294 586.6329467921428 718.4491328234849 683.1437854025562 "></path><path d="M749.7480225434299 136.5797536697412C803.2512195633826 239.39500470271565 776.1603912245978 579.9674702378336 707.0759822057657 673.0314931835895C637.9915731869335 766.0955161293452 508.2432467974545 616.1474706519191 418.14285925303557 583.2870638093693C328.0424717086164 550.4266569668193 357.1034738958342 564.1901179624826 274.5941219925543 515.3015403393496C192.08477008927423 466.4129627162165 17.269818266910875 409.31902307044527 22.09797011729188 348.6218912183299C26.926121967672884 287.9247593662145 208.56869537590478 259.1852247394081 297.76925087438394 223.95530744919603C386.9698063728629 188.72539015898394 356.09839241227337 197.72152859603204 450.2606365099912 179.51828822531218C544.4228806077089 161.31504785459225 696.244825523477 33.764502636766736 749.7480225434299 136.5797536697412C803.2512195633826 239.39500470271565 776.1603912245978 579.9674702378336 707.0759822057657 673.0314931835895 "></path><path d="M736.7944565048565 146.33604439573168C788.3160536351816 245.34332316822554 762.2285893089443 573.3019936835244 695.7028621056244 662.9192009646225C629.1771349023046 752.5364082457207 504.2343020828064 608.1419940822733 417.4709659289214 576.4986393450031C330.70762977503637 544.8552846077328 358.69229854791274 558.1089877887418 279.23884856697646 511.0310982257249C199.78539858604017 463.95320866270777 31.445074608949426 408.97385937418744 36.09440602042747 350.5247694425208C40.743737431905515 292.0756795108541 215.658808121314 264.4005720924479 301.5556393420716 230.4754665537252C387.45247056282915 196.55036101500247 357.7244423044838 205.2133091395673 448.39919588006387 187.68426285665186C539.0739494556439 170.15521657373642 685.2728593745317 47.32876562323776 736.7944565048565 146.33604439573168C788.3160536351816 245.34332316822554 762.2285893089443 573.3019936835244 695.7028621056244 662.9192009646225 "></path><path d="M723.8407683959709 156.09236563930028C773.380765636668 251.29167215131366 748.2966653229782 566.6365476467932 684.3296199351707 652.8069392632339C620.3625745473632 738.9773308796745 500.22523529784564 600.1365480302056 416.7989505344947 569.7102453982152C333.37266577114383 539.2839427662245 360.28100112967877 552.0278881325794 283.883453071086 506.7606866296784C207.4859050124935 461.4934851267774 45.620208880675534 408.62872619550785 50.09071985325056 352.4276781842898C54.56123082582559 296.22663017307184 222.7487987964107 269.61594996306593 305.34190573944693 236.99565617583255C387.93501268248315 204.37536238859917 359.35037012638156 212.7051202006807 446.53763317982384 195.85026800556966C533.7248962332663 178.99541581045867 674.3007711552738 60.893059127286904 723.8407683959709 156.09236563930028C773.380765636668 251.29167215131366 748.2966653229782 566.6365476467932 684.3296199351707 652.8069392632339 "></path><path d="M710.8871413222414 165.8486868828689C758.4455386733107 257.24002113440173 734.3648023721685 559.9711016100621 672.9564387998732 642.6946775618451C611.548075227578 725.4182535136281 496.21622954804116 592.1311019781381 416.12699617522435 562.9218514514271C336.0377628024073 533.7126009247161 361.8697647466008 545.9467884764168 288.52811861035207 502.49027503363186C215.1864724741032 459.0337615908468 59.79540418755789 408.28359301682804 64.08709472122996 354.3305869260589C68.37878525490197 300.37758083528956 229.83885050666368 274.8313278336839 309.1282331719783 243.51584579793985C388.41761583729317 212.20036376219582 360.9763589834356 220.19693126179408 444.6761315147403 204.01627315448752C528.3759040460451 187.83561504718097 663.3287439711722 74.45735263133605 710.8871413222414 165.8486868828689C758.4455386733107 257.24002113440173 734.3648023721685 559.9711016100621 672.9564387998732 642.6946775618451 "></path><path d="M697.933514248512 175.60497760885937C743.5103117099533 263.1883395999117 720.4329394213587 553.3056250557529 661.5832576645757 632.5823853428783C602.7335759077929 711.8591456300036 492.2072237982368 584.1256254084924 415.4550418159538 556.1334269870611C338.702859833671 528.1412285656297 363.4585283635231 539.8656583026761 293.172784149618 498.2198329200072C222.88703993571278 456.5740075373383 73.97059949444025 407.9384293205703 78.0834695892093 356.2334651502498C82.1963396839783 304.5285009799293 236.92890221691664 280.04667518672375 312.9145606045099 250.03600490246902C388.9002189921032 220.02533461821434 362.60234784048976 227.68871180532938 442.81462984965674 212.18224778582726C523.0269118588237 196.67578376632514 652.3567167870707 88.02161561780707 697.933514248512 175.60497760885937C743.5103117099533 263.1883395999117 720.4329394213587 553.3056250557529 661.5832576645757 632.5823853428783 "></path><path d="M684.9798566572044 185.3612530760608C728.5750542290178 269.1366428066326 706.5010459529708 546.6401332426547 650.2100460117002 622.4700778651223C593.9190460704297 698.30002248759 488.1981875308543 576.1201335800577 414.78305693910534 549.3449872639058C341.3679263473565 522.5698409477541 365.04726146286725 533.7845128701464 297.8174191713058 493.9493755475935C230.58757687974435 454.1142382250406 88.14576428374448 407.59325036552343 92.07981393961052 358.1363281156516C96.01386359547655 308.6794058657798 244.01892340959142 285.26200728097456 316.7008575194633 256.5561487482092C389.3827916293351 227.8502902154438 364.2283061799658 235.18047709007556 440.95309766699506 220.34820715837787C517.6778891540243 205.5159372266802 641.3846590853909 101.58586334548903 684.9798566572044 185.3612530760608C728.5750542290178 269.1366428066326 706.5010459529708 546.6401332426547 650.2100460117002 622.4700778651223 "></path><path d="M672.0261990658968 195.11760483720758C713.6397967480824 275.0850223072988 692.5691524845829 539.9747177235017 638.8368343588246 612.3578466813118C585.1045162330663 684.7409756391219 484.18915126347156 568.1147180455681 414.11107206225677 542.556623834696C344.032992861042 516.998529623824 366.6359945622114 527.703443731562 302.4620541929936 489.6789944691252C238.2881138237758 451.6545452066882 102.32092907304872 407.24814770442185 106.07615829001173 360.03926737499876C109.83138750697475 312.83038704557566 251.1089446022662 290.4774156691707 320.48715443441665 263.07636888789466C389.865364266567 235.67532210661864 365.8542645194418 242.6723186687671 439.0915654843334 228.51424282487386C512.328866449225 214.35616698098062 630.4126013837113 115.1501873671163 672.0261990658968 195.11760483720758C713.6397967480824 275.0850223072988 692.5691524845829 539.9747177235017 638.8368343588246 612.3578466813118 "></path><path d="M659.0726330273236 204.87389556319806C698.7046308198812 281.03334077280874 678.6373505689294 533.3092411691924 627.4637142586835 602.2455544623449C576.2900779484374 671.1818677554974 480.18020654882343 560.1092414759223 413.4391787381426 535.76819937033C346.69815092746194 511.4271572647374 368.2248192142898 521.6223135578214 307.1067807674158 485.40855235550043C245.9887423205417 449.1947911531797 116.49618541508733 406.902984008164 120.07259419314732 361.94214559918964C123.64900297120738 316.9813071902153 258.1990573476754 295.69276302221056 324.2735429021044 269.59652799242383C390.34802845653326 243.5002929626371 367.4803144116521 250.16409921230235 437.2301248544061 236.68021745621354C506.97993529715995 223.1963357001248 619.440635234766 128.71445035358732 659.0726330273236 204.87389556319806C698.7046308198812 281.03334077280874 678.6373505689294 533.3092411691924 627.4637142586835 602.2455544623449 "></path><path d="M646.1190364711722 214.63021680676667C683.769434374102 286.9816897558968 664.7055181356978 526.6437951324613 616.0905636409641 592.1332927609561C567.4756091462305 657.622790389451 476.1712313165971 552.1037954238548 412.76725489645037 528.979805423542C349.36327847630355 505.85581542322905 369.8136133487902 515.5412139016587 311.75147682425984 481.138140759454C253.68934029972945 446.73506761724923 130.6714112395478 406.5578508294843 134.0689995787048 363.84505434095877C137.46658791786183 321.1322578524331 265.2891395755065 300.90814089282856 328.059900852214 276.1167176145311C390.8306621289215 251.3252943362338 369.1063337862844 257.65591027341577 435.36865370690055 244.8462226051314C501.6309736275168 232.03653493684703 608.4686385682425 142.27874385763647 646.1190364711722 214.63021680676667C683.769434374102 286.9816897558968 664.7055181356978 526.6437951324613 616.0905636409641 592.1332927609561 "></path><path d="M633.1653178447084 224.38650753275715C668.8341158580104 292.93000822140675 650.7735636321537 519.9783185781521 604.7172909529322 582.0210005419892C558.6610182737109 644.0636825058265 472.1621340140582 544.0983188542091 412.09520898444555 522.1913809591758C352.0282839548329 500.2844430641426 371.402285412978 509.4600837279181 316.3960508107914 476.86769864582925C261.3898162086047 444.2753135637406 144.8465149936958 406.2126871332265 148.0652828939498 365.74793256514965C151.28405079420384 325.2831779970727 272.3790997330251 306.12348824586843 331.84613673201113 282.63687671906035C391.31317373099716 259.15026519225233 370.73223109060405 265.147690816951 433.5070604890826 253.01219723647114C496.2818898875612 240.8767036559912 597.4965198314065 155.8430068441075 633.1653178447084 224.38650753275715C668.8341158580104 292.93000822140675 650.7735636321537 519.9783185781521 604.7172909529322 582.0210005419892 "></path><path d="M620.2117212885571 234.14279825874763C653.8989194122312 298.87832668691675 636.841731198922 513.3128420238429 593.344140335213 571.9087083230224C549.8465494715039 630.504574622202 468.15315878183196 536.0928422845633 411.42328514275323 515.4029564948097C354.6934115036746 494.713070705056 372.9910795474784 503.3789535541773 321.04074686763545 472.5972565322047C269.0904141877925 441.815559510232 159.02174081815627 405.8675234369688 162.06168827950728 367.65081078934054C165.10163574085828 329.4340981417123 279.4691819608562 311.33883559890825 335.63249468212075 289.1570358235896C391.7958074033854 266.97523604827086 372.3582504652363 272.6394713604863 431.6455893415771 261.1781718678108C490.93292821791806 249.71687237513532 586.524523164883 169.4072698305785 620.2117212885571 234.14279825874763C653.8989194122312 298.87832668691675 636.841731198922 513.3128420238429 593.344140335213 571.9087083230224 "></path><path d="M607.2581247324058 243.89911950231624C638.9637229664518 304.8266756700048 622.9098987656904 506.64739598711185 581.9709897174937 561.7964466216338C541.0320806692969 616.9454972561557 464.1441835496056 528.0873962324957 410.751361301061 508.6145625480217C357.35853905251633 489.14172886354777 374.5798736819787 497.29785389801486 325.6854429244795 468.3268449361583C276.79101216698024 439.3558359743016 173.19696664261676 405.5223902582891 176.05809366506475 369.55371953110955C178.9192206875128 333.5850488039301 286.5592641886872 316.55421346952625 339.41885263223037 295.6772254456969C392.27844107577357 274.8002374218675 373.9842698398686 280.13128242159974 429.78411819407165 269.3441770167287C485.5839665482748 258.5570716118576 575.5525264983596 182.97156333462766 607.2581247324058 243.89911950231624C638.9637229664518 304.8266756700048 622.9098987656904 506.64739598711185 581.9709897174937 561.7964466216338 "></path><path d="M594.3044823998872 253.65541022830672C624.0284807443054 310.77499413551476 608.9780205560917 499.98191943280256 570.5977933234071 551.6841544026669C532.2175660907226 603.3863893725312 460.13516254101205 520.0819196628499 410.0793916830015 501.8261380836557C360.0236208249909 483.5703565044612 376.1686220401119 491.2167237242742 330.33009320495637 464.05640282253364C284.4915643698008 436.896081920793 187.37214669071 405.17722656203125 190.05445327425502 371.45659775530044C192.73675985780005 337.7359689485697 293.64930064015107 321.7695608225661 343.2051648059728 302.19738455022605C392.76102897179453 282.62520827788603 375.6102434381336 287.623062965135 427.92260127019904 277.51015164806836C480.2349591022645 267.3972403310018 564.580484055469 196.53582632109868 594.3044823998872 253.65541022830672C624.0284807443054 310.77499413551476 608.9780205560917 499.98191943280256 570.5977933234071 551.6841544026669 "></path><path d="M581.3507485146342 263.4117314718753C609.0931469694247 316.7233431186028 595.0460507937585 493.3164733960714 559.2245053765862 541.5718927012781C523.402959959414 589.8273120064848 456.12604997968424 512.0764736107824 409.40733051220764 495.0377441368677C362.68861104473115 477.99901466295296 377.75727884551065 485.1356240681116 334.97465193269886 459.7859912264871C292.192025019887 434.4363583848625 201.54723518606892 404.83209338335155 204.05072133071093 373.3595064970695C206.55420747535294 341.88691961078746 300.7392455388806 326.98493869318406 346.99138542698086 308.7175741723334C393.2435253150811 290.45020965148274 377.2361254836643 295.11487402624834 426.06099279359205 285.6761567969862C474.8858601035198 276.23743956772404 553.6083500598439 210.10011982514789 581.3507485146342 263.4117314718753C609.0931469694247 316.7233431186028 595.0460507937585 493.3164733960714 559.2245053765862 541.5718927012781 "></path><path d="M568.3971977348501 273.16802219786587C594.1579963000127 322.67166158411277 581.114264136894 486.6509968417622 547.851400535234 531.4596004823113C514.5885369335742 576.2682041228604 452.11712052382506 504.0709970411367 408.7354524468826 488.24931967250154C365.35378436994006 472.4276423038664 379.34611875637825 479.0544938943709 339.6193937659101 455.51554911286246C299.89266877544196 431.9766043313539 215.7225067868966 404.4869296870937 218.04717249263564 375.2623847212604C220.37183819837463 346.03783975542706 307.8293735430789 332.20028604622394 350.77778915345766 315.2377332768626C393.72620476383645 298.27518050750126 378.86219063466376 302.60665456978364 424.1995674224538 293.8421314283259C469.53694421024375 285.0776082868682 542.6363991696877 223.6643828116189 568.3971977348501 273.16802219786587C594.1579963000127 322.67166158411277 581.114264136894 486.6509968417622 547.851400535234 531.4596004823113 "></path><path d="M555.4435706611207 282.92431292385635C579.2227693366553 328.61998004962277 567.1824011860842 479.9855202874529 536.4782193999366 521.3473082633444C505.774037613789 562.7090962392359 448.1081147740206 496.0655204714909 408.0634980876122 481.4608952081354C368.01888140120366 466.8562699447799 380.9348823733004 472.97336372063023 344.26405930517603 451.2451069992378C307.5932362370516 429.51685027784526 229.89770209377895 404.1417659908359 232.04354736061498 377.16526294545133C234.18939262745096 350.18875990006666 314.91942525333184 337.4156333992638 354.56411658598915 321.7578923813918C394.2088079186466 306.1001513635198 380.4881794917178 310.09843511331894 422.33806575737015 302.00810605966564C464.1879520230225 293.91777700601233 531.6643719855861 237.22864579808993 555.4435706611207 282.92431292385635C579.2227693366553 328.61998004962277 567.1824011860842 479.9855202874529 536.4782193999366 521.3473082633444 "></path><path d="M542.4899435873913 292.68063416742496C564.287542373298 334.56832903271084 553.2505382352745 473.32007425072186 525.1050382646392 511.23504656195564C496.9595382940039 549.1500188731895 444.0991090242162 488.06007441942336 407.39154372834173 474.6725012613474C370.6839784324673 461.28492810327157 382.5236459902227 466.8922640644678 348.90872484444196 446.9746954031913C315.29380369866124 427.05712674191483 244.0728974006613 403.79663281215625 246.03992222859432 379.06817168722034C248.00694705652734 354.33971056228444 322.0094769635848 342.6310112698818 358.3504440185207 328.2780820034991C394.6914110734566 313.92515273711643 382.11416834877195 317.5902461744323 420.4765640922866 310.1741112085835C458.83895983580123 302.7579762427346 520.6923448014845 250.79293930213908 542.4899435873913 292.68063416742496C564.287542373298 334.56832903271084 553.2505382352745 473.32007425072186 525.1050382646392 511.23504656195564 "></path><path d="M529.5363012548728 302.4369706697826C549.3523001511516 340.51669327458796 539.3186600256756 466.65464347277975 513.7318418705527 501.12280011935604C488.1450237154297 535.5909567659323 440.09008801562265 480.05464362614475 406.7195741102822 467.8841225733486C373.3490602049419 455.7136015205523 384.11239434835585 460.8111796670943 353.55337512491883 442.7042990659338C322.9943559014818 424.59741846477345 258.2480774487546 403.4515148922656 260.0362818377846 380.9710956877784C261.8244862268146 358.4906764832913 329.09951341504865 347.8464043992889 362.13675619226314 334.7982868843955C395.17399896947757 321.75016936950215 383.740141947037 325.0820724943348 418.615047168414 318.34013161629036C453.4899523897909 311.598190738246 509.7203023585939 264.3572480649773 529.5363012548728 302.4369706697826C549.3523001511516 340.51669327458796 539.3186600256756 466.65464347277975 513.7318418705527 501.12280011935604 "></path><path d="M516.5826589223542 312.19324613698404C534.4170579290052 346.46499648130884 525.3867818160768 459.9891516596815 502.3586454764661 491.0104926416001C479.3305091368554 522.0318336235187 436.0810670070291 472.04915179771 406.0476044922228 461.0956828501934C376.01414197741644 450.14221390267676 385.701142706489 454.7300342345645 358.1980254053957 438.4338416935201C330.6949081043024 422.1376491524758 272.4232574968479 403.1063359372187 274.0326414469749 382.8739586531803C275.6420253971019 362.6415813691418 336.18954986651255 353.0617364935397 365.92306836600557 341.3184307301357C395.6565868654986 329.5751249667316 385.366115545302 332.573837779081 416.7535302445413 326.50609098884104C448.1409449437806 320.43834419860104 498.74825991570333 277.92149579265924 516.5826589223542 312.19324613698404C534.4170579290052 346.46499648130884 525.3867818160768 459.9891516596815 502.3586454764661 491.0104926416001 "></path><path d="M503.6290318486248 321.94956738055265C519.4818309656478 352.4133454643969 511.454918865267 453.32370562295046 490.9854643411687 480.8982309402114C470.5160098170703 508.4727562574724 432.0720612572247 464.0437057456424 405.3756501329524 454.3072889034054C378.67923900868004 444.5708720611684 387.28990632341123 448.64893457840196 362.8426909446616 434.1634300974737C338.39547556591197 419.67792561654534 286.59845280373025 402.76120275853907 288.0290163149543 384.7768673949493C289.45957982617824 366.79253203135954 343.27960157676546 358.2771143641577 369.70939579853706 347.83862035224297C396.13919002030866 337.4001263403283 386.9921044023562 340.0656488401944 414.8920285794577 334.67209613775884C442.7919527565593 329.27854343532334 487.7762327316017 291.4857892967084 503.6290318486248 321.94956738055265C519.4818309656478 352.4133454643969 511.454918865267 453.32370562295046 490.9854643411687 480.8982309402114 "></path><path d="M490.6753895161062 331.7058733653322C504.5465887435014 358.361679188696 497.5230406556683 446.6582443274302 479.61226794708216 470.7859539800336C461.7014952384961 494.91366363263694 428.0630402486312 456.0382444347857 404.7036805148929 447.51887969782837C381.34432078115464 438.999514960871 388.8786546815444 442.56781966345034 367.4873412251385 429.8930032426381C346.0960277687326 417.2181868218258 300.77363285182355 402.4160543210703 302.02537592414456 386.6797608779293C303.27711899646556 370.94346743478826 350.36963802822936 363.49247697598656 373.4957079722795 354.3587947155612C396.6217779163296 345.2251124551359 388.6180780006212 347.5574446425187 413.0305116555851 342.83808602788764C437.44294531054896 338.1187274132566 476.80419028871097 305.0500675419685 490.6753895161062 331.7058733653322C504.5465887435014 358.361679188696 497.5230406556683 446.6582443274302 479.61226794708216 470.7859539800336 "></path><path d="M477.7217777011658 341.46217935011174C489.61137703893314 364.310012912995 483.5911929636476 439.99278303191005 468.2391020705738 460.6736770198558C452.88701117749997 481.35457100780155 424.05404975761576 448.03278312392905 404.03174141441156 440.7304704922513C384.0094330712073 433.42815786057355 390.4674335572557 436.4867047484987 372.1320220231935 425.6225763878025C353.79661048913124 414.7584480271062 314.94884341749497 402.07090588360154 316.02176605091296 388.58265436090926C317.09468868433095 375.0944028382169 357.4597049972714 368.7078395878155 377.28205066360005 360.8789690788795C397.10439632992876 353.0500985699435 390.24408211646437 355.04924044484306 411.16902524929054 351.0040759180164C432.0939683821167 346.95891139118976 465.8321783633985 318.61434578722856 477.7217777011658 341.46217935011174C489.61137703893314 364.310012912995 483.5911929636476 439.99278303191005 468.2391020705738 460.6736770198558 "></path><path d="M464.7681506274364 351.2184853348913C474.6761500755758 370.258346637294 469.6593300128378 433.3273217363899 456.86592093527634 450.561400059678C444.07251185771486 467.79547838296617 420.0450440078113 440.0273218130724 403.3597870551411 433.9420612866743C386.67453010247095 427.85680076027614 392.0561971741779 430.40558983354714 376.7766875624594 421.3521495329669C361.4971779507409 412.2987092323867 329.1240387243773 401.72575744613283 330.0181409188923 390.4855478438892C330.9122431134073 379.24533824164564 364.54975670752435 373.92320219964444 381.0683780961316 367.3991434421978C397.5869994847388 360.8750846847511 391.8700709735185 362.54103624716737 409.307523584207 359.1700658081452C426.74497619489546 355.799095369123 454.86015117929696 332.17862403248864 464.7681506274364 351.2184853348913C474.6761500755758 370.258346637294 469.6593300128378 433.3273217363899 456.86592093527634 450.561400059678 "></path><path d="M451.8145235537069 360.9747913196709C459.7409231122184 376.206680361593 455.72746706202804 426.66186044086976 445.4927397999789 440.44912309950024C435.2580125379297 454.2363857581307 416.0360382580069 432.02186050221576 402.6878326958707 427.1536520810972C389.33962713373455 422.28544365997874 393.6449607911002 424.3244749185955 381.42135310172534 417.08172267813137C369.1977454123505 409.8389704376672 343.29923403125963 401.38060900866407 344.01451578687164 392.38844132686916C344.72979754248365 383.3962736450743 371.63980841777726 379.1385648114734 384.8547055286631 373.919317805516C398.06960263954886 368.70007079955866 393.4960598305726 370.03283204949173 407.4460219191234 367.336055698274C421.3959840076742 364.63927934705623 443.8881239951954 345.7429022777487 451.8145235537069 360.9747913196709C459.7409231122184 376.206680361593 455.72746706202804 426.66186044086976 445.4927397999789 440.44912309950024 "></path><path d="M438.86089647997744 370.73108204566137C444.8056961488611 382.15499882710293 441.7956041112183 419.9963838865605 434.11955866468145 430.3368308805334C426.4435132181445 440.6772778745062 412.0270325082024 424.01638393256997 402.0158783366003 420.3652276167311C392.0047241649982 416.7140713008922 395.2337244080224 418.2433447448548 386.0660186409913 412.8112805645067C376.89831287396015 407.3792163841586 357.474429338142 401.03544531240624 358.010890654851 394.2913195510601C358.54735197156003 387.54719378971396 378.7298601280302 384.35391216451325 388.6410329611946 380.4394769100452C398.5522057943589 376.5250416555772 395.1220486876267 377.524612593027 405.58452025403983 375.50203032961366C416.0469918204529 373.47944806620035 432.9160968110938 359.30716526421975 438.86089647997744 370.73108204566137C444.8056961488611 382.15499882710293 441.7956041112183 419.9963838865605 434.11955866468145 430.3368308805334 "></path><path d="M425.90725414745896 380.4873880304409C429.8704539267147 388.103332551402 427.8637259016195 413.33092259104035 422.7463622705949 420.22455392035556C417.6289986395703 427.11818524967083 408.0180114996089 416.01092262171335 401.34390871854083 413.5768184111541C394.66980593747274 411.1427142005948 396.82247276615556 412.16222982990325 390.71066892146814 408.5408537096711C384.5988650767807 404.91947758943905 371.6496093862353 400.6902968749375 372.0072502640413 396.19421303404005C372.3648911418473 391.6981291931426 385.8198965794941 389.5692747763421 392.427345134937 386.9596512733635C399.0347936903799 384.3500277703848 396.74802228589175 385.01640839535133 403.72300333016716 383.66802021974246C410.69798437444257 382.3196320441336 421.9440543682032 372.87144350947983 425.90725414745896 380.4873880304409C429.8704539267147 388.103332551402 427.8637259016195 413.33092259104035 422.7463622705949 420.22455392035556 "></path><path d="M412.9536270737295 390.24369401522046C414.93522696335737 394.051666275701 413.9318629508098 406.6654612955202 411.37318113529744 410.1122769601778C408.81449931978517 413.55909262483544 404.00900574980443 408.0054613108567 400.6719543592704 406.78840920557707C397.3349029687364 405.5713571002974 398.4112363830778 406.0811149149516 395.35533446073407 404.2704268548356C392.29943253839036 402.45973879471956 385.82480469311764 400.34514843746877 386.00362513202066 398.09710651702005C386.1824455709237 395.84906459657134 392.90994828974704 394.78463738817106 396.2136725674685 393.47982563668177C399.5173968451899 392.1750138851924 398.3740111429459 392.50820419767564 401.8615016650836 391.8340101098712C405.34899218722126 391.15981602206676 410.9720271841016 386.4357217547399 412.9536270737295 390.24369401522046C414.93522696335737 394.051666275701 413.9318629508098 406.6654612955202 411.37318113529744 410.1122769601778 "></path></g></svg>